<svg id="Layer_2" data-name="Layer 2" xmlns="http://www.w3.org/2000/svg" viewBox="0 0 1645 1160"><defs><style>.cls-1,.cls-2{fill:none;stroke-miterlimit:10;}.cls-1{stroke:#fc0;}.cls-2{stroke:#02e2ac;}.cls-3{fill:#02e2ac;}</style></defs><path class="cls-1" d="M414.34,561.69c9.5-2.76,17-8.51,27.59-10.8,4.31-.92,9.67-1,20.39-1.2,3.48-.06,6.38,0,8.4,0,2.52-3.55,6.31-9,10.8-15.59,17.43-25.79,16.18-27,24-37.19,0,0,20.84-27.19,45.58-34.79a30.07,30.07,0,0,1,14.4-1.2c4,.72,11.19,2,14.39,7.2,1.27,2.06,2.16,5.14,4.8,6,.13,0,1.62.52,3.6,1.2a5.69,5.69,0,0,1,2.4,1.2,4.4,4.4,0,0,1,1.2,2.4,5.9,5.9,0,0,0,3.6-1.2c3-2.47,1.74-7.84,3.6-8.4,1-.3,2.16,1,2.4,1.2,3.12,3.21,33.15,26.53,76.77,60a13.76,13.76,0,0,1,0,6c-.87,3.74-3.07,5.39-2.4,7.19s3.73,2.22,4.8,2.4c4.06.71,9.74,3.81,16.79,14.4,0,1.48,0,4,0,7.2.14,15.24,1.07,20.18-1.2,27.59a41.43,41.43,0,0,1-2.4,6c-10.09,21.68-28.19,44.54-30,46.79-5.7,7.14-13.3,16.22-22.79,26.39v6l2.4,3.6a9.35,9.35,0,0,0,1.2,7.19,9.16,9.16,0,0,0,4.8,3.6c.64,3.42,1.42,7,2.4,10.8,1.11,4.3,2.33,8.3,3.6,12a3.58,3.58,0,0,0,2.4,1.2,3.82,3.82,0,0,0,3.6-2.39,3.63,3.63,0,0,0,2.39-1.2c1.17-1.47.41-3.64,0-4.8-.78-2.24-1.93-2.17-2.39-3.6-1-3.14,2.6-8.3,7.19-9.6a8.6,8.6,0,0,1,4.8,0,10.43,10.43,0,0,1,4.8,3.6,16.43,16.43,0,0,1,2.4,3.6,4.52,4.52,0,0,0,1.2-4.8,4.46,4.46,0,0,0-2.4-2.4l1.2-6a14.88,14.88,0,0,1,18,7.2c.88.55,2.14,1.36,3.6,2.4,4.07,2.89,11.22,8,16.8,16.79a51.93,51.93,0,0,1,7.19,19.2c1.32,7.25,2.57,14.08-1.2,20.39a15.35,15.35,0,0,1-8.39,7.2,14.37,14.37,0,0,1-8.4,0,110.6,110.6,0,0,1-27.59,25.19,13.59,13.59,0,0,0-3.6,8.4,13.35,13.35,0,0,0-7.2,0c-.91.26-1.72.62-4.8,2.4-2.54,1.46-3.82,2.2-6,3.6-4.78,3.06-17.15,2.7-27.59-2.4a45.32,45.32,0,0,1-18-16.8c-2.41-4.11-2.57-6.11-6-12a81.07,81.07,0,0,0-9.59-13.2c-2.23,1.46-3.75,1.53-4.8,1.2-2.26-.71-3.53-4.48-6-12h0c-1.46-4.13-2.15-6.13-3.6-8.39s-2.31-3.61-3.6-3.6c-1.86,0-2.58,3.2-4.79,6-1.77,2.22-4.88,4.71-10.8,6a7,7,0,0,1-2.4,2.4c-2.27,1.32-3.71.24-6,1.2s-2.12,2.75-4.8,4.8c-1.84,1.42-3.62,1.85-6,2.4a34.07,34.07,0,0,1-14.4,0,33,33,0,0,0,1.2,3.6,32.45,32.45,0,0,0,2.4,4.8,10.83,10.83,0,0,1,2.4-1.2c1.1-.4,4.73-1.71,7.2,0,1.49,1,1.9,2.71,2.4,4.8a15.92,15.92,0,0,1,0,7.19c-.42,1.81-1.38,6-4.8,8.4-2.52,1.77-7.3,3.26-8.4,3.6a5.64,5.64,0,0,0-2.4,1.2c-1.57,1.42-1.14,3-2.4,3.6s-2.51-.75-3.6,0c-.84.58-.45,1.64-1.2,2.4-.58.59-1.83,1-4.8,0a67,67,0,0,1-2.39,9.59c-1.93,5.81-3.83,8.85-6,13.2-6,12-3.65,13.39-8.4,21.59-1.67,2.89-5.11,6.73-12,14.4-10.09,11.25-10.33,10.44-15.59,16.79-8.89,10.74-8.12,12.93-14.4,18A43.22,43.22,0,0,1,443.13,900c-4.38,1-10.78,2.56-18,0-9.71-3.43-14.25-11.88-15.6-14.39-4.27-8-4-15.37-3.6-25.19a105.85,105.85,0,0,1,4.8-26.4,156.51,156.51,0,0,1,16.8-37.18,5.12,5.12,0,0,0-2.4-3.6,4.76,4.76,0,0,0-3.6,0c-4.16,1.28-7.14,4.58-8.4,6-9,10.11-13.45,15.16-14.39,16.79a5.71,5.71,0,0,1-2.4,2.4,6.49,6.49,0,0,1-4.8,0V822a37.74,37.74,0,0,1-4.8,3.6c-11.4,7.22-23.37,6.31-26.39,6-5.89-.62-13.41-1.4-19.19-7.2-6.43-6.45-6.85-15.22-7.2-22.79-.39-8.3,1.26-14.79,3.6-24,1.7-6.68,4-13.22,4.8-15.59s1.91-5.48,3.59-9.6c3.85-9.38,5.77-14.07,8.4-16.79s5.66-4.48,10.8-9.6c1.14-1.14,1.33-1.39,2.4-2.4,4.19-4,5.58-4.17,6-6,.47-2.07-1-3.41,0-4.79a3.4,3.4,0,0,1,2.4-1.2l-10.79-7.2-4.8,8.4c-1.55-.15-3.55-.07-4.8,1.2a5.16,5.16,0,0,0-1.2,3.59c-.08,5.52-3.74,18.45-8.4,25.2-1.76,2.55-6,7.63-15.59,10.79-.54-.36-5.58-3.81-4.8-6,.16-.44.51-.7,1.2-1.2,2.3-1.66,4.07-1.2,4.8-2.39a2.73,2.73,0,0,0,0-2.4H334V738h-3.6c.57,1.57.11,2.25,0,2.4-1,1.27-4,.26-4.8,0a6.4,6.4,0,0,1-4.8-6h-9.59V726h-2.4v4.8h-8.4a13.82,13.82,0,0,1-1.2-8.4c.81-4.1,3.74-7.13,9.6-13.19,1-1,1.85-1.87,2.4-2.4a22.2,22.2,0,0,0,0-14.4h-2.4v-9.59a75.29,75.29,0,0,0,6-6,72.33,72.33,0,0,0,4.8-6c-1.2-.88-4.18-3.33-4.8-7.2-.88-5.51,3.39-11.84,10.8-14.39a10.44,10.44,0,0,1-2.4-6,10.56,10.56,0,0,1,2.4-7.2c-2.46-10.88-.24-18.12,1.2-21.59,5.09-12.24,16.37-15.69,22.79-24a9.68,9.68,0,0,1,4.8-3.6,8.87,8.87,0,0,1,4.8,0,15.17,15.17,0,0,1,4.8-6c4-2.89,9.16-3.35,12-3.6,3.57-.31,5.16.1,7.2-1.2a9.35,9.35,0,0,0,3.6-4.79c6.48,1.45,9.36.19,10.8-1.2,2.07-2,1.18-4.4,3.59-6,1.94-1.28,3.4-.34,8.4-1.2A40.29,40.29,0,0,0,414.34,561.69Z"/><path class="cls-1" d="M525.9,547.29c.4-.49,15-17.65,15.6-18,5.57-2.93,8.35.06,13.19-3.6,3-2.24,2.47-3.76,6-6s4.79-1.21,8.4-3.6c3.33-2.2,3.28-3.75,6-4.79s5-.43,7.19,0c8.14,1.6,10.12.23,15.6,1.2,7.49,1.32,12.46,5.43,20.39,12,9.32,7.71,17.55,14.51,21.59,26.39,2.28,6.69,2.34,12.36,2.4,18a78.5,78.5,0,0,1-3.6,24,90.39,90.39,0,0,1-9.59,21.59,181.69,181.69,0,0,0-14.4-18c-3.59-4-19.66-21.27-46.78-37.19a219.93,219.93,0,0,0-32.39-15.6l-4.8-1.2"/><polyline class="cls-1" points="567.89 489.71 573.89 482.51 661.46 554.49 667.45 549.69 589.48 484.92 585.88 484.92 584.68 475.32 578.77 475.32 578.68 477.72 581.08 477.72 581.08 482.51 578.68 482.51 578.68 480.12 576.28 480.12 576.28 482.51 584.68 489.71 587.08 489.71 587.08 486.11"/><polyline class="cls-1" points="567.89 486.79 553.49 474.12 505.51 543.69 513.25 545.52 518.71 543.69 525.9 546.38"/><line class="cls-1" x1="570.29" y1="489.71" x2="591.88" y2="507.71"/><circle class="cls-1" cx="527.7" cy="523.9" r="4.2"/><circle class="cls-1" cx="648.86" cy="607.87" r="4.2"/><path class="cls-1" d="M561.89,506.51a12.37,12.37,0,0,1,2.4-10.8l6,3.6"/><path class="cls-1" d="M564.41,489.71a12.71,12.71,0,0,0-7.32,7.2,12.4,12.4,0,0,0,0,8.4"/><line class="cls-1" x1="578.44" y1="501.11" x2="588.28" y2="508.91"/><path class="cls-1" d="M534.3,478.92a47.1,47.1,0,0,0-18.69,10.79l.7,1.39,6-2.59,5.4-2.4Z"/><path class="cls-1" d="M680.36,603.67l3.89-8.39a2.61,2.61,0,0,1,2.4,0q3.45,2.38-7.2,25.19Z"/><polyline class="cls-1" points="641.76 578.32 653.06 558.26 661.46 565.29 656.66 574.88"/><path class="cls-1" d="M659.06,606.07a15.55,15.55,0,0,0-6-7.19,15.37,15.37,0,0,0-8.4-2.4"/><polyline class="cls-1" points="641.76 593.24 645.86 590.48 666.54 591.86 691.59 568.29"/><polygon class="cls-1" points="620.67 631.26 631.47 619.27 644.66 628.65 633.87 640.86 620.67 631.26"/><polygon class="cls-1" points="626.07 630.49 631.66 624.28 638.5 629.14 632.9 635.46 626.07 630.49"/><polygon class="cls-1" points="607.16 640.86 611.07 638.46 614.72 638.46 614.72 640.86 610.94 646.14 607.16 646.14 607.16 640.86"/><line class="cls-1" x1="617.07" y1="633.66" x2="632.67" y2="651.54"/><line class="cls-1" x1="644.66" y1="635.46" x2="673.45" y2="597.68"/><line class="cls-1" x1="644.66" y1="639.45" x2="665.46" y2="639.45"/><rect class="cls-1" x="601.48" y="480.12" width="8.8" height="12" transform="translate(421.46 -268.46) rotate(37.52)"/><rect class="cls-1" x="612.27" y="488.51" width="8.8" height="12" transform="translate(428.81 -273.3) rotate(37.52)"/><rect class="cls-1" x="631.47" y="502.91" width="8.8" height="12" transform="translate(441.55 -282.01) rotate(37.52)"/><rect class="cls-1" x="650.66" y="518.5" width="8.8" height="12" transform="translate(455.02 -290.47) rotate(37.52)"/><rect class="cls-1" x="660.26" y="526.9" width="8.8" height="12" transform="translate(462.12 -294.58) rotate(37.52)"/><polyline class="cls-1" points="657.4 580.76 664.65 567.33 664.65 562.61 666.68 562.61 666.68 567.47 669.85 567.69 669.85 576.11 667.45 576.25 667.45 586.04 658.12 586.04"/><path class="cls-1" d="M534.3,516.22a21.51,21.51,0,0,1,4.8-2.52,32.63,32.63,0,0,1,4.8-1.19c2.16-.6,4.89-2.73,7.19-9.6"/><line class="cls-1" x1="544.33" y1="528.1" x2="544.33" y2="516.22"/><path class="cls-1" d="M523.5,551.92h9.6l2.16,2.57h4.53l1.73-2.57,6,3.77c21.29,13.38,29.68,18.27,34.79,21.59,8.43,5.48,20,14.56,32.39,30h4.8a12,12,0,0,1,2.4,3.6c3.25,7.62-3,16-3.6,16.8"/><line class="cls-1" x1="521.01" y1="562.61" x2="525.9" y2="555.45"/><line class="cls-1" x1="523.45" y1="575.32" x2="531.9" y2="559.03"/><line class="cls-1" x1="527.7" y1="577.04" x2="535.5" y2="561.69"/><rect class="cls-1" x="507.91" y="547.29" width="2.4" height="2.4"/><rect class="cls-1" x="516.31" y="550.89" width="2.4" height="2.4"/><rect class="cls-1" x="512.71" y="555.69" width="2.4" height="2.4"/><polyline class="cls-1" points="608.67 626.47 608.67 622.03 615.51 614.47"/><line class="cls-1" x1="610.94" y1="612.07" x2="605.07" y2="619.27"/><line class="cls-1" x1="619.47" y1="618.07" x2="612.78" y2="626.47"/><path class="cls-1" d="M601.48,613.27a37.84,37.84,0,0,1,2.4,8.4c.63,3.89,1,6.3,0,8.39-2.62,5.37-12.69,4.84-13.2,4.8l2.4-4.8a4.84,4.84,0,0,1-7.2-3.59l13.2-12Z"/><path class="cls-1" d="M523.45,553.29l-7.14,10.44a5.25,5.25,0,0,1,4.79,8.75,48,48,0,0,0-7.19,22.8c-.74,15.28,6.45,26.35,9.59,31.19a49.09,49.09,0,0,0,13.2,14.39,47.22,47.22,0,0,0,58.78-3.6"/><path class="cls-1" d="M512.71,620.47a57.44,57.44,0,0,0,10.79,16.79c3.61,3.89,16,16.16,34.79,18,27.88,2.73,46.53-19.78,48-21.6"/><path class="cls-1" d="M479.33,548.49a12.25,12.25,0,0,1,7-3.6c6.64-.78,11.65,5.33,13.19,7.2,3.41,4.16,4.81,8.79,6,18a167.45,167.45,0,0,1,1.2,28.79"/><path class="cls-1" d="M484.08,550.89a19.73,19.73,0,0,1,9.43,3.6c13.68,10.2,12.57,41.4-2.4,60-8.2,10.18-19.06,14.71-26.39,16.79"/><path class="cls-1" d="M393,578.32a83.69,83.69,0,0,1,9.94,11.47,86.28,86.28,0,0,1,13.84,30.68"/><path class="cls-1" d="M365.16,704.44c.58-1.38,1.51-3.49,2.76-6,3.9-7.84,5.23-8.08,6.83-12,2.72-6.62-.24-8,2.4-18a43.42,43.42,0,0,1,3.6-9.59c2.73-5.22,4.16-5.18,7.2-10.8,2.54-4.71,2.17-5.91,4.8-9.6,1.94-2.72,3.35-4.7,6-6,5.16-2.52,10.87-.41,12,0,4.07,1.5,4.15,3.25,7.2,3.6,3.65.42,7.93-1.59,9.6-4.8,1.88-3.62,0-7.9-1.2-10.79-8-19.32-3.33-18.31-11.35-34.43a129.92,129.92,0,0,0-13.85-21.95"/><path class="cls-1" d="M373.1,681a34.44,34.44,0,0,0-7.94-13.87c-14.74-15.42-39-9.87-40.79-9.42"/><path class="cls-1" d="M412.83,564.09a46.12,46.12,0,0,1,14.71,19.19,43.65,43.65,0,0,1,2.4,8.4,39,39,0,0,0,13.19,14.39"/><path class="cls-1" d="M422.44,635.46a10.09,10.09,0,0,1,0,5.4c-1.13,3.75-4.37,5.15-6.9,7.2-7.62,6.16-8.25,17.69-8.4,20.39-.4,7.33,2.34,8.39,1.2,15.6a30.45,30.45,0,0,1-4.8,12c-1.71,2.66-6.44,10.17-15.59,13.2a25.21,25.21,0,0,1-6,1.2,43.26,43.26,0,0,1,7.2-28.79c1.38-2,1.91-2.4,3.6-4.8a58.65,58.65,0,0,0,6-10.8h-13.2v-7.19h-4.8"/><polyline class="cls-1" points="405.03 631.26 405.03 649.41 394.98 649.41 395.01 635.46"/><polyline class="cls-1" points="396.75 649.41 394.98 652.62 392.21 654.35 392.21 658.01 392.21 666.05"/><polyline class="cls-1" points="400.01 649.41 396.75 654.35 398.38 655.49 398.38 664.06 398.75 666.05"/><line class="cls-1" x1="405.03" y1="649.41" x2="410.99" y2="653.54"/><polyline class="cls-1" points="404.85 635.46 398.38 635.46 398.38 649.41"/><path class="cls-1" d="M378.26,664.7a7.81,7.81,0,0,0,6.09,3.75,21.58,21.58,0,0,1,0,4.8c-.66,5.84-3.27,7.07-4.8,13.2-.66,2.63-.12,2.18-1.2,9.59-.44,3.07-.89,5.57-1.2,7.2l-2.4,2.4-7.54-5.76"/><path class="cls-1" d="M422.81,638.46a18.93,18.93,0,0,0,4.73-2.4,19.28,19.28,0,0,0,4.79-4.8,28.19,28.19,0,0,0,27.59,0"/><path class="cls-1" d="M431.83,577a51.46,51.46,0,0,1,26.9-8.15"/><path class="cls-1" d="M434.71,585.08a42,42,0,0,1,10.57-5.52,42.6,42.6,0,0,1,17-2.28"/><path class="cls-1" d="M456,553.29a57.85,57.85,0,0,1,5.11,9.6c6.95,16.64,4.43,32.54,2.4,40.78"/><path class="cls-1" d="M483.91,555.69a39.35,39.35,0,0,1,4.8,15.6c1.43,16.47-8.38,28.41-10.79,31.18"/><path class="cls-1" d="M400,594.25q-3.58-1.89-7.26-3.77-4.85-2.47-9.6-4.8"/><ellipse class="cls-1" cx="487.46" cy="674.38" rx="10.12" ry="13.49" transform="translate(-334.08 542.21) rotate(-45)"/><circle class="cls-1" cx="535.5" cy="668.45" r="6"/><polygon class="cls-1" points="447.16 656.32 456.01 644.2 463.79 650.26 452.34 664.7 447.16 656.32"/><polygon class="cls-1" points="456.93 662.58 466.12 649.86 474.15 651.87 464.31 667.52 456.93 662.58"/><polyline class="cls-1" points="512.71 657.73 518.63 657.73 518.63 653.54 522.09 653.54 523.5 655.49 525.9 655.49 525.9 657.73 529.5 655.49 523.5 648.51 521.44 649.41 512.71 652.4 512.71 646.57 513.85 640.34 506.87 634.26 506.87 631.26 501.91 628.87 498.31 625.27 483.91 642.44 483.91 647.87 490.99 649.41 515.11 669.65 500.71 688.85 503.09 691.05 519.71 668.64 536.7 681.65 549.73 664.7 499.63 624.08"/><circle class="cls-1" cx="491.11" cy="643.26" r="2.4"/><circle class="cls-1" cx="507.91" cy="643.26" r="2.4"/><circle class="cls-1" cx="500.11" cy="633.06" r="1.8"/><polyline class="cls-1" points="456.01 664.7 444.5 680.95 515.11 734.43 561.1 672.95 549.73 664.7"/><line class="cls-1" x1="503.09" y1="692.42" x2="530.49" y2="713.87"/><line class="cls-1" x1="515.11" y1="678.05" x2="541.5" y2="698.44"/><polygon class="cls-1" points="452.73 679.25 458.73 670.85 487.46 692.42 481.93 699.57 452.73 679.25"/><polyline class="cls-1" points="457.83 691.05 450.33 700.84 474.15 720.03 493.51 718.08"/><polyline class="cls-1" points="489.85 715.3 510.86 715.3 510.86 712.72 518.63 712.72 518.63 714.01 522.81 714.01 522.81 716.17 519.93 716.17 519.78 718.83 520.1 727.75"/><polyline class="cls-1" points="518.1 730.42 513.25 730.42 513.25 726.97 512.01 726.97 512.01 724.83 509.11 724.83 509.11 729.89"/><path class="cls-1" d="M525.33,727.63l-2.52,2.79v2.31c-1-.36-2.37-.66-3.1,0-1.19,1.07-.36,4.42,1.39,6.5,2.65,3.12,7.43,3.37,12,3.6,1.53.07,2.79,0,3.6,0v-7.2c-2.79,1.16-5.36.29-6-1.2a3,3,0,0,1,1.2-3.6,2.93,2.93,0,0,1,2.4,0h3.6v-2.4l-12-7.2"/><polyline class="cls-1" points="504.24 720.03 475.66 732.05 477.92 745.23 482.72 741.63 487.46 738.99 506.32 732.05 506.33 727.78 506.33 723.51 504.24 723.51 504.24 720.03 508.41 720.23 508.41 715.3"/><circle class="cls-1" cx="462.92" cy="703.84" r="3"/><path class="cls-1" d="M450.33,717.63l-7.2,9.6-10.8-14.39-3.59,1.2c-2.67-3.52-2.82-5.77-2.4-7.2.34-1.19,1.07-1.82,1.2-3.6.09-1.41-.3-2,0-3.6.18-1,.39-2.12,1.2-2.4s1.66.26,2.39,1.2l4.8,9.6,12.09-4.9-8.2-10.72v-5.9L435.07,681v-2.9h-3.94v3.72l-3.59-.12a6.09,6.09,0,0,0-3.6-6,5.64,5.64,0,0,0-6,1.2c-2.2,2.34-1.73,7.61,2.4,12l-3.7,4.8a17.73,17.73,0,0,0-7.1,8.4c-.6,1.54-3,7.69,0,10.8,2.51,2.59,8.22,2.5,13.2-1.2"/><polyline class="cls-1" points="441.86 705.64 452.73 720.23 447.16 729.05"/><path class="cls-1" d="M452.73,720.23a10.71,10.71,0,0,1,2.74-1.4c2.33-.76,4.27-.45,6.85,0,3.22.57,5.2.91,7.2,2.4,2.33,1.74,1.92,3,3.6,3.6,2.44.91,4.33-1.34,8.4-2.4a17.68,17.68,0,0,1,8.39,0"/><path class="cls-1" d="M450.33,730.42l4.39-5.59,5.2.21v2.71h-3a4.87,4.87,0,0,0,0,2.67c.54,1.86,2.15,2.82,4.19,4a23.07,23.07,0,0,0,6,2.4l-7.2,10.79"/><line class="cls-1" x1="456.75" y1="729.05" x2="447.16" y2="741.79"/><polyline class="cls-1" points="440.79 740.72 445.87 745.23 444.5 753.02 434.42 745.23 443.27 732.05 447.16 735.42 443.06 741.79"/><polyline class="cls-1" points="450.33 768.14 465.92 748.49 487.46 762.09"/><polyline class="cls-1" points="435.93 789.61 450.33 770.51 471.32 785.84 467.91 791.46 458.73 806.57 453.63 803.12 453.63 820.39 458.73 829.03 468.11 829.03 487.46 804.41 472.83 792.73 471.92 792.01 467.46 794.16"/><rect class="cls-1" x="487.46" y="815.64" width="6.77" height="5.18"/><polyline class="cls-1" points="481.65 799.77 502.8 769 516.79 779.58"/><polygon class="cls-1" points="493.51 757.13 497.11 756.02 503.09 760.58 509.11 751.94 506.33 750.43 515.11 742.87 504.31 736.23 504.31 740.5 499.22 740.93 500.28 745.23 494.88 741.79 495.53 747.63 490.99 747.63 490.99 749.57 493.51 749.78 493.51 757.13"/><path class="cls-1" d="M512.37,745.23a4.85,4.85,0,0,0,1.24,3.17c1.17,1.25,2.84,1.41,5.09,1.62a18.42,18.42,0,0,0,3.6,0c1.58-3.13,2.16-3.68,2.4-3.6.65.23-.49,5.28-1.2,8.4-.46,2-.89,3.69-1.2,4.8h-3.6a8.83,8.83,0,0,1-3.59,1.2,9.82,9.82,0,0,1-7.2-2.4l4.8-7.2-3.12-3.6"/><line class="cls-1" x1="579.88" y1="736.83" x2="570.02" y2="712.72"/><path class="cls-1" d="M632.28,658.69c-5.45-2.75-16.64-7.29-29.6-4.63-20.32,4.17-36.63,24.33-39.59,50.38"/><path class="cls-1" d="M626.07,668.45a46.13,46.13,0,0,0-18.06,2.4c-22.4,7.82-30.48,31-31.73,34.79"/><path class="cls-1" d="M629.67,675.65a45.76,45.76,0,0,0-18.06,2.4c-22.4,7.82-30.48,31-31.73,34.79"/><path class="cls-1" d="M651.26,720a46.13,46.13,0,0,0-18.06,2.4c-22.4,7.82-30.48,31-31.72,34.79"/><path class="cls-1" d="M683.8,787.5v9.43l2.85,4.68h7.17l15.62-10.8,4.8-7.2h2.61l1-2.4c1.57.35,5.61,1,8.39-1.2,4-3.18,4.47-11.61-1.2-19.19v-3.6"/><polyline class="cls-1" points="717.84 781.21 720.24 769.22 711.84 766.82 707.04 782.41 706.53 785.41 713.04 785.41"/><path class="cls-1" d="M711,707.91c.94,2.58,2.21,6.33,3.46,10.92,2.91,10.73,4.32,16.2,2.16,21.6a16.4,16.4,0,0,1-7.2,8.39c-8.12,4.24-18.06-1.42-24-4.79a51.21,51.21,0,0,1-16.8-15.6c2.26.4,5.19.51,7.2-1.2,1.75-1.48,1.78-3.47,2.4-4.8,1.29-2.79,6.25-5.08,21.59-3.6"/><path class="cls-1" d="M667.45,717.63a6.58,6.58,0,0,0,4.06,1.2c3.53-.18,5.4-3.35,5.54-3.59"/><path class="cls-1" d="M677.05,729.12a8.35,8.35,0,0,0,3.6,2.91,9.27,9.27,0,0,0,6,0c3-.83,8-1.37,16.79,0"/><line class="cls-1" x1="683.8" y1="704.44" x2="691.45" y2="704.44"/><polygon class="cls-1" points="666.25 720.03 662.65 722.43 662.65 740.72 671.05 764.42 673.45 764.42 675.85 754.82 677.05 755.18 679.28 750.33 667.45 733.59 666.25 720.03"/><path class="cls-1" d="M653.14,728.43a32.66,32.66,0,0,0-12.86,9.64c-8,10.25-7.58,24-2.57,33.75,6.86,13.33,23.44,21.28,41.14,19.28"/><polyline class="cls-1" points="656.46 718.83 653.06 723.63 647.06 727.23"/><polygon class="cls-1" points="438.33 790.81 446.73 780.01 463.52 793.21 456.75 802.9 438.33 790.81"/><polygon class="cls-1" points="447.29 790.16 453.93 794.41 452.73 798.15 445.87 794.16 447.29 790.16"/><rect class="cls-1" x="395.15" y="715.3" width="4.08" height="23.93"/><polygon class="cls-1" points="413.6 700.04 422.74 706.84 420.51 708.04 411.65 703.24 413.6 700.04"/><polygon class="cls-1" points="410.74 708.04 414.24 708.04 416.19 710.44 416.19 712.64 413.46 712.64 410.74 710.92 410.74 708.04"/><path class="cls-1" d="M427.54,636.06q0,3.56,0,7.2c.1,8,.53,15.57,1.2,22.79"/><path class="cls-1" d="M493.51,611.2a68.93,68.93,0,0,0-17.85-3.33c-19.91-1-35.16,7.06-42.13,11.4"/><path class="cls-1" d="M314.8,698.44a81,81,0,0,1,14.25,7.1,82,82,0,0,1,19.31,16.89"/><polygon class="cls-1" points="342.44 691.05 345.89 685.17 354.96 692.42 351.51 698.44 342.44 691.05"/><path class="cls-1" d="M333.08,699.57a35.6,35.6,0,0,1,23.68,7.27"/><path class="cls-1" d="M342.44,704.44a23.31,23.31,0,0,1,3.52,1.2,24.72,24.72,0,0,1,8.4,6"/><polyline class="cls-1" points="398.75 632.46 406.5 619.27 378.35 596.48 359.16 630.07 384.29 653.54"/><path class="cls-1" d="M592.48,754.82a28.19,28.19,0,0,1,3-16.79c6.24-11.6,18.65-14.08,20.39-14.4"/><rect class="cls-1" x="505.51" y="612.07" width="4.8" height="7.2"/><path class="cls-1" d="M344.92,599.39a28.63,28.63,0,0,1,10-.51,28.93,28.93,0,0,1,12.6,4.79"/><path class="cls-1" d="M438.33,631.26a35.15,35.15,0,0,0,9.6-15.59"/><path class="cls-1" d="M446.73,632.46a35.56,35.56,0,0,0,7.2-9.59,36.31,36.31,0,0,0,2.4-6"/><path class="cls-1" d="M462.32,626.47a35.59,35.59,0,0,0,7.2-9.6,34.32,34.32,0,0,0,2.4-6"/><path class="cls-1" d="M612.78,712.64A41.26,41.26,0,0,0,587.08,738"/><path class="cls-1" d="M365.16,745.23A65.63,65.63,0,0,0,373.55,762c11.08,15.9,26.44,22.61,33.59,25.19"/><path class="cls-1" d="M342.44,770.51a56.18,56.18,0,0,0,11.92,20.9C369,807.54,388.67,809.62,394,810"/><path class="cls-1" d="M337.69,791.46A40.75,40.75,0,0,0,346,806.4c13.37,15.21,33.82,14.56,37.19,14.4"/><path class="cls-1" d="M417.2,834.64a56.81,56.81,0,0,0,53.52,32.94"/><path class="cls-1" d="M416.19,854.08a52.28,52.28,0,0,0,14.94,14.7,53.44,53.44,0,0,0,28.79,8.4"/><path class="cls-1" d="M410.19,867.27A52.34,52.34,0,0,0,425.14,882a53.4,53.4,0,0,0,28.79,8.4"/><path class="cls-1" d="M320.77,734.43a16.32,16.32,0,0,1,6-8.4"/><path class="cls-1" d="M696.7,704.44a11.14,11.14,0,0,1,4.34,6,11,11,0,0,1,0,6"/><path class="cls-1" d="M705,720.49a11,11,0,0,1,3.33,5.28,10.77,10.77,0,0,1,.2,4.94"/><path class="cls-1" d="M710.13,733.23a11,11,0,0,1,1.71,6,10.9,10.9,0,0,1-1.2,4.8"/><line class="cls-1" x1="708.77" y1="744.03" x2="696.7" y2="744.03"/><line class="cls-1" x1="309.98" y1="687.65" x2="320.77" y2="677.45"/><path class="cls-1" d="M547.28,638a33,33,0,0,0,7.41,1.68,35.09,35.09,0,0,0,19.2-3.6l-2.4,4.8,6-1.2"/><line class="cls-1" x1="577.08" y1="640.86" x2="571.2" y2="648.85"/><path class="cls-1" d="M571.49,640.86a41.61,41.61,0,0,1-25.19,0"/><path class="cls-1" d="M1015.33,555.69l33.59-44.38-2.4-1.2a90.77,90.77,0,0,0-39.58-14.4,87.62,87.62,0,0,0-19.2,0A250.23,250.23,0,0,0,965,458.52a217.54,217.54,0,0,0-43.18-42c-4.83-3.48-11.37-7.81-20.4-8.4-3.76-.24-13-.84-19.19,4.8-2.73,2.49-3.8,5.23-8.4,8.4a29.67,29.67,0,0,1-7.19,3.6l-4.8-1.2-1.2-4.8c-3.34-.92-6.69.05-8.4,2.4a6.79,6.79,0,0,0-1.2,4.34l-68.38,53.24-2.4,7.19,9.6,10.8,78-62.38v-3.6h4.8v-7.19h7.2v2.39h-2.4v4.8h2.4"/><polyline class="cls-1" points="1048.92 511.31 1051.32 510.11 1054.56 510.11 1059.72 514.9 1059.72 518.1 1034.53 562.89"/><path class="cls-1" d="M1038.13,541.3c-3.92,8.86-7,15.57-9.6,20.39a17.33,17.33,0,0,0-2.4,8.4,15.84,15.84,0,0,0,1.2,6"/><path class="cls-1" d="M1033.33,565.29c-.19.26-2.81,4-1.2,8.08a8.82,8.82,0,0,0,9.6,5.11"/><line class="cls-1" x1="1068.12" y1="524.5" x2="1050.12" y2="538.9"/><path class="cls-1" d="M1057.45,533l-.73,5.86-6.6,5.32a36.12,36.12,0,0,1-1.2,8.21,37.63,37.63,0,0,1-7.19,14.06"/><line class="cls-1" x1="1057.45" y1="542.49" x2="1075.94" y2="533.04"/><polygon class="cls-1" points="1053.7 565.29 1078.91 543.69 1084.91 544.89 1084.91 554.49 1099.04 578.59 1072.91 598.88 1053.7 565.29"/><polygon class="cls-1" points="1106.6 578.59 1117.83 578.59 1117.3 588.08 1106.6 588.08 1106.6 578.59"/><path class="cls-1" d="M1057.45,556.75c3.86-3.27,7.83-6.82,11.87-10.66,3.41-3.24,6.6-6.45,9.59-9.59"/><path class="cls-1" d="M1135.61,592a15.92,15.92,0,0,0,0,5.35,5.8,5.8,0,0,0,.88,2.74c1.31,1.75,3,.9,4.8,2.39.65.56,1.25,2.38,2.4,6s1.21,4.25,1.2,4.8c-.05,2.24-1,2.5-1.2,4.8,0,.51-.08,1.21,1.2,6,1.23,4.61,1.62,5.36,2.4,6a5.75,5.75,0,0,0,3.6,1.2c1.71,5.24,1,7.4,0,8.4-1.34,1.33-3.26.64-4.8,2.4a6.58,6.58,0,0,0-1.2,4.8c.2,2.82,1.68,4.87,3.6,7.2,6.21,7.53,8,7,9.6,10.79.11.27,2.41,5.76,0,10.8-.42.87-1.66,3.45-3.6,3.6-1.69.12-3.16-1.63-4.8-3.6a20,20,0,0,1-2.4-3.6,10.07,10.07,0,0,1,0,6c-.43,1.31-1,3.06-2.4,3.6-2.68,1-6.05-3.3-7.2-2.4-.62.48.29,1.81,0,4.8-.15,1.56-.27,2.85-1.2,3.6s-2.65.51-4.8,0a22.91,22.91,0,0,1-6-2.4,7.09,7.09,0,0,0,0,3.59c.79,3,3.6,5.24,7.19,6,0,.44.18,4.32-2.4,6-2.09,1.36-4.71.45-6,0-5.42-1.89-8.35-7-13.2-15.59a78.19,78.19,0,0,1-3.6-7.2c-1.78-4.12-3.2-7.47-3.6-12a29,29,0,0,1,0-4.8,9.17,9.17,0,0,1-4.79-1.2c-4.38-2.52-4.77-7.87-4.8-8.39a12.18,12.18,0,0,1-12,3.6q.49,2.88,1.2,6,.57,2.5,1.2,4.8a113.5,113.5,0,0,1,12,10.8c4.87,5,9.21,9.56,13.19,16.79a57.43,57.43,0,0,1,7.2,20.4,83.85,83.85,0,0,0,1.2,8.39,82.51,82.51,0,0,0,3.6,12c2.76,7.5,3.43,7,3.6,9.6.29,4.48-1.76,5.39-2.4,12-.49,5,.56,5.7,0,8.4-1.42,6.75-9.68,10.43-13.2,12-18.5,8.24-35.82-.37-38.39-2.39a13.52,13.52,0,0,1-2.39-2.4c-1.64-2.27-1.2-3.6-2.4-4.8-1.57-1.55-3.41-.42-6-1.2-2.38-.71-3.43-2.44-7.2-8.4-5.93-9.37-6.44-10-7.2-10.8-2.47-2.61-6.2-6.55-10.79-6a9.66,9.66,0,0,0-6,3.6c1.07,2.22,2.71,5.57,4.8,9.59,3.53,6.8,5.72,10.48,7.2,13.2a91.64,91.64,0,0,1,8.39,22.79,97.81,97.81,0,0,1,2.4,30c-.79,13.37-3.52,17.5-4.8,19.19a25.5,25.5,0,0,1-12,8.4c-9,3.26-17.08,1-20.4,0-11.32-3.36-18.23-11.34-24-18-4-4.61-3-4.55-10.79-14.4-2.52-3.18-4.39-5.41-12-14.39-13.11-15.48-12.91-15.15-13.2-15.6-7.18-11.09-10.26-23.24-10.79-27.59-.08-.61-.39-3.44-1.2-7.2-.44-2-.89-3.69-1.2-4.79a16.38,16.38,0,0,1-6,0,17.78,17.78,0,0,1-10.79-7.2,17.53,17.53,0,0,1-6-2.4,17.12,17.12,0,0,1-7.2-9.6c-.57-2.06-2.19-7.88,1.2-10.79,2.57-2.22,6.42-1.39,7.2-1.2l2.4,2.4,4.79-6v-3.6c-9.58,3.24-14.89,1.94-18,0-1.74-1.09-1.86-1.8-6-4.8a66.54,66.54,0,0,0-9.59-6c-1.76-.88-3.56-1.68-7.2-3.6-3.16-1.66-4.18-2.3-4.8-3.6-1-2.05,0-3.85-1.2-4.79-.93-.77-2.51-.39-3.6,0l-2.4,4.79c-2,4-4.47,7.8-6,12-.93,2.58-1.08,3.74-2.39,4.8-1.79,1.43-4.2,1.44-6,1.2a17.51,17.51,0,0,1-1.2,4.8c-.81,2-1.7,3-6,8.39a37.21,37.21,0,0,0-3.6,4.8,29,29,0,0,0-2.4,6c-1.3,3.61-3.68,5.62-8.4,9.6a47.32,47.32,0,0,1-13.19,8.39c-3.92,1.62-13.78,5.53-25.19,2.4a33.43,33.43,0,0,1-8.4-3.6c-.21.09-5.27,2.1-9.6-1.2a9.7,9.7,0,0,1-3.59-9.59l-4.8-2.4c-.05,1.32-.1,3.42,0,6,.22,6,.94,7.18,0,8.39-2,2.61-8.76,1.44-13.2-1.2a17.69,17.69,0,0,1-6-6,5.92,5.92,0,0,1-3.6,0,6.8,6.8,0,0,1-3.59-3.6,10.08,10.08,0,0,1-1.2-4.8c-.75-.26-2-.71-3.6-1.2-5.57-1.73-7.42-1.75-9.6-3.6a6.69,6.69,0,0,1-2.4-3.6,5.72,5.72,0,0,1,0-2.4c.47-2.45,1.3-8.45,2.4-16.79a32.72,32.72,0,0,1-2.4-7.2c-2.06-10,1.22-18.09,3.6-24,6.76-16.74,18.54-24.26,20.39-25.19l2.4-1.2c3.4-1.65,4-1.69,4.8-2.4,1.85-1.57,1.46-3.37,2.4-4.8,1.2-1.82,4.62-3.19,14.4-1.2.94,2.76.56,4.09,0,4.8-.4.5-.78.54-1.2,1.2-.86,1.35-.67,3.34,0,3.6s1.14-1.21,2.39-1.2,1.55,1.23,2.4,1.2c.65,0,1.48-.75,2.4-3.6,1-.39,3.69-1.27,6,0,1.36.75,2.11,2.5,3.6,6,2,4.66,1.51,5.62,1.2,6-.71.87-1.89.34-2.4,1.2-.69,1.16.68,3.55,2.4,4.79a6.59,6.59,0,0,0,3.6,1.2,1.35,1.35,0,0,0,0,1.2c.42.69,1.9.83,3.6,0h1.2v-7.19h2.4a49,49,0,0,1,1.2-8.4,52.48,52.48,0,0,1,10.79-21.59,15.47,15.47,0,0,0,0-6c-1.5-7.31-8.33-11.54-10.79-13.2-3.9-2.62-10.6-12.14-24-31.19-10.45-14.85-15.74-22.5-19.19-33.59A84.6,84.6,0,0,1,761,525.7a82.56,82.56,0,0,1,1.2-20.39,28.75,28.75,0,0,1,19.19-12h1.2l1.69-2.6"/><polyline class="cls-1" points="867.78 434.53 872.61 434.53 872.58 438.13 875.63 438.13 875.63 434.53 878.22 434.53"/><polygon class="cls-1" points="922.97 424.94 928.17 424.94 943.36 436.93 943.36 438.13 940.96 436.93 933.16 433.88 926.57 429.73 922.97 428.7 922.97 424.94"/><polyline class="cls-1" points="890.58 436.93 885.78 429.73 878.22 436.93"/><line class="cls-1" x1="873.78" y1="440.53" x2="793.41" y2="504.11"/><polygon class="cls-1" points="786.81 478.36 793.46 473.52 801.21 483.74 795.67 489.11 786.81 478.36"/><polygon class="cls-1" points="797.01 470.52 805.41 463.32 812.72 472.32 804.87 480.67 797.01 470.52"/><polygon class="cls-1" points="816.2 456 824.6 449.53 831.8 459.23 824 465.55 816.2 456"/><polygon class="cls-1" points="834.6 440.53 842.81 434.53 850.99 445.11 842.8 451.01 834.6 440.53"/><polygon class="cls-1" points="780.22 564.88 780.22 551.06 771.82 540.1 771.82 552.49 780.22 564.88"/><polyline class="cls-1" points="840.19 580.88 827 591.68 812.72 578.41 786.81 547.03"/><polyline class="cls-1" points="764.62 514.9 783.36 540.1 785.01 564.09"/><line class="cls-1" x1="787.96" y1="558.69" x2="807.81" y2="585.68"/><circle class="cls-1" cx="810.2" cy="555.69" r="3.6"/><circle class="cls-1" cx="932.56" cy="472.92" r="3.6"/><line class="cls-1" x1="816.2" y1="576.11" x2="826.83" y2="569.35"/><line class="cls-1" x1="830.29" y1="569.35" x2="836.6" y2="577.28"/><path class="cls-1" d="M842.8,580.71v-4.6l-12.51-11.23a36.32,36.32,0,0,1-8.77-12.79c-2.81-7.06-1.6-11-1.72-26.39-.14-18.24-1.9-19.09,0-25.19,2.47-7.93,7.32-12.51,14.4-19.19s20.3-19.18,39.58-20.4c4.11-.26,8.85-.72,14.4,1.2,6.42,2.23,7.1,5.16,15.59,9.6,7.78,4.06,9.46,2.78,14.4,6,3.6,2.35,8.37,6.72,12,15.59"/><path class="cls-1" d="M818.92,530.62,807.81,509l-1.2-6.91a26.62,26.62,0,0,0,9.59-5.47c3.25-2.95,4.54-5.72,6-8.14,3.33-5.53,8.22-9.28,18-16.79,7.36-5.65,11-8.48,16.8-10.8a50.93,50.93,0,0,1,16.79-3.6,49.28,49.28,0,0,1,8.4-10.79c6.61-6.38,11.58-7.44,13.2-13.2.57-2,.56-4.1,2.39-6a8,8,0,0,1,6-2.39c3.51.21,6,3.23,7.2,4.79,4.57,5.91,19.69,28.21,39.59,58.78"/><path class="cls-1" d="M828.17,562.69c3.5-4.35,8.34-10.11,14.42-16.6a247.54,247.54,0,0,1,24-22.79c14.18-11.66,24.66-20.28,40.78-25.19a84.45,84.45,0,0,1,22.79-3.6,7.23,7.23,0,0,1,6-4.8,7.47,7.47,0,0,1,6,2.4,71.87,71.87,0,0,0,8.4,1.2,72.84,72.84,0,0,0,20.39-1.2"/><path class="cls-1" d="M848.59,576.08l-8.4-9.59a44.71,44.71,0,0,1,2.19-7.8c3.64-9.57,9.83-15.75,15.81-21,4.51-4,19.66-16.8,55.18-34.79,2-1,3.69-1.85,4.8-2.4-.35,2,1.09,3.61,2.4,3.6a2.82,2.82,0,0,0,2.4-2.4,15.2,15.2,0,0,1,7.19-1.2,14.9,14.9,0,0,1,4.8,1.2"/><line class="cls-1" x1="843.82" y1="562.89" x2="849.79" y2="570.09"/><line class="cls-1" x1="846.8" y1="559.29" x2="850.99" y2="565.29"/><line class="cls-1" x1="922.97" y1="508.91" x2="931.34" y2="526.19"/><line class="cls-1" x1="927.15" y1="505.57" x2="934.96" y2="520.7"/><line class="cls-1" x1="932.56" y1="504.11" x2="937.36" y2="511.31"/><path class="cls-1" d="M963.75,496.91l-6-1.2-4.82,4.75h-4.32l-3.88,5.11-4.47,3.34v2.4l-1.65,1.82v5a20.55,20.55,0,0,1,2.16,2.6,24.82,24.82,0,0,1,2.59,5,65.66,65.66,0,0,1,3.6,22.79,55.72,55.72,0,0,1-6,24,52.74,52.74,0,0,1-25.19,24,51.32,51.32,0,0,1-32.39,3.6,48,48,0,0,1-25.19-14.4,45.56,45.56,0,0,1-7.2-10.8"/><path class="cls-1" d="M987.74,495.71a26.09,26.09,0,0,0-4,0c-6,.45-10.4,2.82-14,4.8a51.24,51.24,0,0,0-7.2,4.8,78.18,78.18,0,0,0-2.4,12c-1,8.76-3.8,31.84,10.8,48a44.15,44.15,0,0,0,21.59,13.19,40.73,40.73,0,0,0,8.4,1.2"/><polyline class="cls-1" points="973.35 494.51 963.75 495.64 954.66 508.91 954.66 549.76"/><rect class="cls-1" x="951.76" y="553.29" width="3.6" height="3.6"/><rect class="cls-1" x="847.39" y="588.08" width="3.6" height="3.6"/><path class="cls-1" d="M1006.94,495.71a65.37,65.37,0,0,0-6,9.86c-8.36,17-7.39,33.65-6,42.92"/><circle class="cls-1" cx="997.34" cy="556.89" r="8.4"/><path class="cls-1" d="M1011.66,530.62a48.73,48.73,0,0,0-2.32,5.88,50.32,50.32,0,0,0-2.4,13.19"/><path class="cls-1" d="M1023.18,530.62a72.13,72.13,0,0,1-6.62,16c-3.31,5.87-5.43,7.7-6,11.47-.63,3.95.46,9.82,8.39,18"/><polygon class="cls-1" points="803.3 499.31 804.87 507.71 798.24 511.31 795.21 505.57 803.3 499.31"/><polyline class="cls-1" points="787.96 507.71 777.31 517.55 774.82 522.14 792 541.29 797.88 543 799.14 539.5 816.2 539.5 816.2 545.59"/><line class="cls-1" x1="818.92" y1="579.68" x2="828.17" y2="573.32"/><path class="cls-1" d="M821.52,582.15a6.89,6.89,0,0,1,3.08-1.27c1.81-.24,2.71.47,3.6,0,.71-.37,1.4-1.49,1.2-4.8"/><path class="cls-1" d="M823.92,587a6.89,6.89,0,0,1,3.08-1.27c1.81-.24,2.71.47,3.6,0,.71-.38,1.4-1.5,1.2-4.8"/><path class="cls-1" d="M859.39,596.48a73.35,73.35,0,0,0,25.19,9.59c5.63,1,14.4,2.5,25.19,0,14-3.25,22.88-11.24,27.59-15.59a68.53,68.53,0,0,0,16.8-24,65,65,0,0,0,3.59-12"/><path class="cls-1" d="M823.92,615.84a21.47,21.47,0,0,1,13.88-26.56"/><path class="cls-1" d="M840.19,602.56a65.33,65.33,0,0,1,15.6,2.31c4.82,1.33,32.47,9,38.39,31.19,1,3.59,2.31,11.21-1.2,21.6"/><line class="cls-1" x1="880.98" y1="684.05" x2="890.58" y2="663.65"/><path class="cls-1" d="M830.42,613.82a102.6,102.6,0,0,1,27.77,7.85c8,3.53,14.43,6.49,20.39,13.19a44.66,44.66,0,0,1,9.6,18"/><path class="cls-1" d="M846.12,630.11a76.36,76.36,0,0,1,13.27,7.15c6.2,4.2,14.51,10,19.19,20.4a37.56,37.56,0,0,1,2.4,7.19"/><path class="cls-1" d="M840.19,640c2.38.15,20,1.56,30,16.44a36.55,36.55,0,0,1,6,19.19"/><path class="cls-1" d="M803,666.05l4.8,7.8c1.89,2.35,4.56,5.81,7.5,10.2,3.85,5.73,5.77,8.59,6.89,12,2.83,8.59-.28,16.77-1.2,19.2-4.65,12.25-18.32,21-34.79,22.79"/><path class="cls-1" d="M814.16,673.85c1.61.36,4,.94,6.84,1.8,6.27,1.9,15.79,4.86,25.19,12a63.22,63.22,0,0,1,12,12"/><path class="cls-1" d="M825.8,661.25a85.41,85.41,0,0,1,19.17,4.8c7,2.66,12.09,4.66,16.82,9.6a32.32,32.32,0,0,1,7.19,12"/><path class="cls-1" d="M743.84,666.05a41,41,0,0,0-2,7.2c-.73,4-1.52,8.35,0,13.2.55,1.76,2.5,8,8.4,10.79,4.63,2.19,9.16,1,13.19,0a34.51,34.51,0,0,0,12-6,55.44,55.44,0,0,0,13.19-13.19v-3.6a9.4,9.4,0,0,1-8.4-4.8c-1.5-2.3-6.28-4.37-20.39-3.6"/><polygon class="cls-1" points="795.81 690.04 791.78 680.95 780.22 697.24 788.01 712.21 795.81 690.04"/><polyline class="cls-1" points="797.01 686.45 797.01 669.8 792.21 667.25 792.21 676.85"/><path class="cls-1" d="M764.79,651.54a36.83,36.83,0,0,0,4.63.12c2.42-.1,3.38-.39,4.8,0a7.43,7.43,0,0,1,3.6,2.4"/><path class="cls-1" d="M781.41,662.45a6.09,6.09,0,0,1,3.6,1.2c1.23,1,1.37,2,2.4,2.4.69.25,1.79.2,3.6-1.2"/><path class="cls-1" d="M750.23,680.45a50.21,50.21,0,0,0,26.39,0c1.25-.36,2.45-.77,3.59-1.2"/><polyline class="cls-1" points="733.43 705.64 740.96 712.21 750.23 712.21 756.8 720.49 770.4 732.54"/><polygon class="cls-1" points="747.83 714.04 738.45 718.83 743.14 730.71 747.83 733.23 750.23 736.18 754.64 732.54 747.83 714.04"/><path class="cls-1" d="M822.22,686.75a62.65,62.65,0,0,1,13.18,9.83,63.54,63.54,0,0,1,13.19,18.66"/><path class="cls-1" d="M818.6,685.25c3.28,4.75,6.62,10,9.89,15.74a218,218,0,0,1,11.7,23.84"/><path class="cls-1" d="M1018.07,583.33l9.28-2.36,9.32,6a14.12,14.12,0,0,1,5.06-3.7c2.71-1.14,4.32-.7,6-2.4,1.09-1.1,1.34-2.24,2.4-2.4a3.08,3.08,0,0,1,2.4,1.2l1.2,15.6-6,4.8-9.59-10.8-1.46-1.2"/><polyline class="cls-1" points="1066.74 588.08 1066.74 597.12 1063.63 597.12 1063.63 600.08 1065.18 600.08 1065.18 603.67 1073.78 603.67 1072.91 598.88"/><path class="cls-1" d="M1047.72,602.47l6-3.59h6v14.87l3.6,3.12,3.6,4.8v5a25.2,25.2,0,0,0,1.78,2.16,27.54,27.54,0,0,0,4.21,3.59c.89.7,2.29,2.18,3.6,9.6a79.18,79.18,0,0,1,1.2,14.4,17,17,0,0,1-7.19,0c-6.2-1.39-9.71-6.11-13.2-10.8-4.07-5.46-7.26-9.76-7.2-15.6.06-5.5,3-7.76,1.2-12-1-2.52-2.91-3.68-3.6-7.2a13.13,13.13,0,0,1,0-4.8Z"/><polyline class="cls-1" points="1054.85 583.33 1059.72 583.33 1062.61 583.33"/><line class="cls-1" x1="1059.72" y1="590.5" x2="1059.72" y2="583.33"/><path class="cls-1" d="M1132.91,588.12h6.25c6.07,0,7.67-.1,9.25-1.2a5.94,5.94,0,0,0,2.48-3.5c.53-3.21-4.2-6.1-7.44-8.15-2.32-1.46-3-1.5-6.2-3.49-2.17-1.37-3.85-2.63-5-3.49l1.24,19.79"/><path class="cls-1" d="M1082.51,613.27a4.11,4.11,0,0,0-2.4-1.2l-4.68,1.2v4.3c-1.74-.23-2.3.2-2.52.5-.51.71.11,1.79,1.2,4.8.82,2.25.61,2,1.2,3.6,1.54,4.07,2.58,4.59,3.6,7.19.21.53.54,3.56,1.2,9.6a16.1,16.1,0,0,0,2.4,7.2,3,3,0,0,0,1.2,1.2c2.64,1.25,6.86-3.24,7.2-3.6a20,20,0,0,0-2.4-7.2c-2-3.43-3.3-3.27-4.8-6-2.38-4.33-1.67-9.65-1.2-13.19C1083,617.77,1084.11,615,1082.51,613.27Z"/><path class="cls-1" d="M1059.72,518.1l8.4,1.29h3.28c.51,1.7,1,3.41,1.51,5.11,1.59.06,4.1.11,7.2,0,5.43-.19,6.27-.64,8.4,0,2.94.88,5.09,2.86,7.2,4.8,1.85,1.7,1.88,2.17,3.6,3.6a23.62,23.62,0,0,0,6,3.6c6.58,2.91,13,10.28,15.6,13.19a66.12,66.12,0,0,1,9.59,14.4,40.45,40.45,0,0,1,7.2,2.4,29.51,29.51,0,0,1,10.8,7.19c2.16,2.4,5.85,6.48,4.8,10.8a8.88,8.88,0,0,1-3.6,4.8c-5.86,4.54-13.71,2.85-15.6,2.4a173.22,173.22,0,0,1-26.39,2.4q-2.43,0-4.8,0a53.92,53.92,0,0,1-24,9.59v-6a62.16,62.16,0,0,1,10.8-4.8,61.3,61.3,0,0,1,9.6-2.4q1.2-6.6,2.39-13.2l-15.59,14.4"/><path class="cls-1" d="M999.06,565.11a53.12,53.12,0,0,0,4.28,6.18,53.79,53.79,0,0,0,8.4,8.39"/><polygon class="cls-1" points="1062.61 612.07 1062.61 610.73 1066.92 609.67 1066.92 605.98 1068.7 605.98 1068.7 609.02 1072.73 607.92 1073.78 610.73 1068.19 612.07 1062.61 612.07"/><polygon class="cls-1" points="1081.82 605.11 1099.04 601.23 1100.51 602.47 1102.07 609.02 1101.2 612.07 1095.71 615.67 1090.91 610.73 1083.71 610.87 1081.82 605.11"/><polygon class="cls-1" points="1105.3 644.46 1104.1 638.46 1111.3 633.66 1113.58 639.06 1105.3 644.46"/><path class="cls-1" d="M1108.84,671.11a41.58,41.58,0,0,1,32.45-17.05"/><path class="cls-1" d="M1104.1,656.84a23.48,23.48,0,0,1,15.6-6.38"/><polyline class="cls-1" points="1085.08 627.86 1088.51 620.47 1091.94 614.11"/><path class="cls-1" d="M1104.1,609a59.73,59.73,0,0,1,30-4.15"/><polygon class="cls-1" points="898.52 620.99 909.75 612.07 923.28 627.86 939.98 614.11 957.75 639.06 928.14 663.65 898.52 620.99"/><polyline class="cls-1" points="942.35 617.43 970.21 595.88 974.81 601.23 981.43 595.88 995.25 617.43 1002.74 612.07 993.74 597.68 1002.74 592.23 1011.74 603.67 1008.5 612.07 999.05 602.56"/><circle class="cls-1" cx="992.54" cy="604.87" r="2.4"/><circle class="cls-1" cx="1104.1" cy="598.88" r="2.4"/><circle class="cls-1" cx="958.95" cy="580.88" r="2.4"/><circle class="cls-1" cx="968.55" cy="591.68" r="2.4"/><circle class="cls-1" cx="950.56" cy="590.48" r="2.4"/><circle class="cls-1" cx="924.17" cy="614.47" r="6"/><circle class="cls-1" cx="1002.14" cy="600.08" r="2.4"/><polygon class="cls-1" points="930.16 602.47 937.1 595.88 944.78 599.17 958.95 589.28 961.35 594.08 942.35 612.07 936.23 609.02 942.35 604.46 937.38 600.67 934.96 604.46 930.16 602.47"/><ellipse class="cls-1" cx="971.19" cy="623.22" rx="13.85" ry="9.24" transform="translate(-146.11 911.75) rotate(-47.17)"/><ellipse class="cls-1" cx="911.17" cy="659.15" rx="7.74" ry="5.17" transform="translate(-191.68 879.24) rotate(-47.17)"/><polygon class="cls-1" points="973.09 640.02 1000.94 617.43 1006.94 625.27 980.09 647.48 973.09 640.02"/><line class="cls-1" x1="915.66" y1="645.67" x2="945.76" y2="622.23"/><line class="cls-1" x1="984.13" y1="600.08" x2="993.74" y2="597.68"/><polyline class="cls-1" points="972.79 598.88 978.77 592.88 961.35 572.4 954.66 578.59 950.56 578.59 950.56 580.97 952.96 580.97 952.96 583.33 943.79 588.08 943.79 591.68 948.54 595.88"/><path class="cls-1" d="M898.52,669.8l11.25,10.65q10.2,9.63,20.39,19.19"/><path class="cls-1" d="M967.35,664.85l32.39-25.79,7.2,8.42h3.14l-.74,3-2.4-.07q-5.38,4.17-10.8,8.47-6.07,4.8-12,9.59Z"/><path class="cls-1" d="M1033.26,647.48l7.48,9.36,6.76-7.75-8.17-13a9.59,9.59,0,0,0,2.4-3.6c.84-2.3,1.19-6.22-1.2-8.39-1.24-1.13-3.41-2-4.8-1.2-1.06.57-1,1.69-2.4,3.6a12.41,12.41,0,0,1-2.4,2.4l-6-2.4-6,9.09v5.3l-8,11,11.38,5,5-9.36a2.73,2.73,0,0,1,1.18-3,2.35,2.35,0,0,1,2.4,0c1,.74,1.32,2.84,0,4.8l.6,9.44-13.8,14.55-7.65-7.8,7.63-8.61"/><rect class="cls-1" x="1032.13" y="634.86" width="3.6" height="7.2" transform="translate(316.21 -342.11) rotate(22.1)"/><polygon class="cls-1" points="1024.67 630.66 1031.53 632.72 1026.76 640.66 1023.62 641.72 1016.77 651.88 1014.11 650.57 1021.7 640.66 1020.46 637.3 1024.67 630.66"/><polygon class="cls-1" points="1044.12 661.25 1044.12 658.01 1045.78 658.01 1045.78 656.14 1049.38 656.14 1049.38 658.7 1047.5 658.7 1047.5 661.25 1044.12 661.25"/><polyline class="cls-1" points="954.37 667.55 984.14 681.65 981.75 692.44 977.04 692.44 977.04 689.83 954.37 678.02 954.37 667.55 950.92 667.55 950.92 663.65 947.17 663.65 947.17 661.25 942.35 661.25 942.35 662.59 939.4 662.59 939.4 673.85 939.4 676.85 942.35 680.04 946.89 671.12 949.19 671.12 948.16 680.45"/><path class="cls-1" d="M933.07,676.85v3.6a4.13,4.13,0,0,1,3.09-1.2c2.14.25,3.6,2.83,3.6,4.8,0,3.64-5,7-9.6,7.19a11.37,11.37,0,0,1-7.19-2.4l-.27-4.79h5.44v-7.2"/><polygon class="cls-1" points="973.35 752.42 988.72 739.63 997.84 752.42 1005.74 769.22 999.74 777.61 989.54 777.61 973.35 752.42"/><circle class="cls-1" cx="966.75" cy="766.22" r="3"/><circle class="cls-1" cx="1009.94" cy="742.23" r="3"/><polyline class="cls-1" points="999.39 755.71 1003.34 751.22 1005.74 751.22 1005.74 763.22 1002.56 762.46"/><polyline class="cls-1" points="975.1 745.23 957.75 717.47 942.16 728.43 954.15 753.62 969.75 743.38"/><polyline class="cls-1" points="997.84 745.23 990.01 734.74 1009.94 722.65 1020.13 736.83"/><line class="cls-1" x1="950.92" y1="663.65" x2="967.35" y2="663.65"/><polyline class="cls-1" points="984.14 676.85 984.14 672.27 988.72 672.27 989.54 668.45 994.68 668.45 994.68 665.93 1002.56 665.93 1014.11 654.06"/><path class="cls-1" d="M1002.56,678.89l9.18,13.55a35.68,35.68,0,0,1-6,4.8,36.16,36.16,0,0,1-4.44,2.4l-8.76-13.19a27.46,27.46,0,0,0,4.8-2.4c2.95-1.87,4.93-3.12,5.22-5.16.41-2.82-2.69-5.27-3.17-5.64l4.5-2.14,4.25,8.14,4.8-3.53,11.68,16.72-8.64,7.2"/><path class="cls-1" d="M1002.56,823.41a35.62,35.62,0,0,0,12.56,0c18.07-3.28,27.35-19.91,29-23"/><path class="cls-1" d="M1008.56,830.77a32.74,32.74,0,0,0,10.2,0c14.68-2.36,22.22-14.34,23.57-16.57"/><path class="cls-1" d="M1081.74,768.39a32.74,32.74,0,0,0,10.2,0c14.68-2.36,22.21-14.34,23.56-16.57"/><path class="cls-1" d="M1014.56,836.77a33.05,33.05,0,0,0,10.2,0c14.68-2.37,22.22-14.34,23.56-16.57"/><path class="cls-1" d="M1060.92,760.82a57.65,57.65,0,0,0,27.33-7.2c18.36-10.25,25-27.56,26.65-32.39"/><path class="cls-1" d="M1044.12,724.38a71.16,71.16,0,0,0,15.6-42.73"/><line class="cls-1" x1="966.15" y1="710.44" x2="984.14" y2="739.23"/><polyline class="cls-1" points="973.09 710.44 992.54 696.45 1005.07 715.16 987.74 730.83"/><path class="cls-1" d="M991.22,685.38c.38,1,.78,2.39.12,3.46-1,1.72-3.6.7-6,2.4s-1.23,3.88-3.59,6-3.48.33-8.4,2.4c-3,1.25-3.4,2.22-7.2,3.6-1.8.65-2,.54-3.6,1.2a18.06,18.06,0,0,0-6,3.6c-2.19,2.17-1.5,3.27-3.59,6-.68.87-1.21,1.37-6,4.79-6.52,4.67-7.68,5.29-8.4,7.2a9.79,9.79,0,0,0,0,6c.46,1.63,1.51,3.11,3.6,6,2.26,3.13,2.67,3.23,3.6,4.8a18.46,18.46,0,0,1,2.4,7.19"/><polyline class="cls-1" points="973.35 694.43 975.1 691.25 967.35 691.25 966.15 694.43 964.88 689.54 958.63 689.54 954.66 687.64 952.93 685.38 950.92 681.65 947.75 688.04 944.78 691.25 944.78 694.43 939.76 697.89 935.66 696.45 935.66 694.15 931.23 693.57 931.23 706.24 953.17 706.24 950.92 699.64 957.75 695.59 961.77 699.64"/><path class="cls-2" d="M1123.39,319.26a389.7,389.7,0,0,0-51.48-43.92c-20.46-14.58-68.72-46-75.78-38.09-8.67,9.68,48.47,74.64,68.68,97.61,67.27,76.48,78,83.53,189.45,179.74,22.58,19.5,54.17,44.43,95.76,75.88,25,18.91,42.36,31.78,57,39.58"/><circle class="cls-2" cx="1216.27" cy="420.74" r="137.35"/><polygon class="cls-2" points="1282.24 444.36 1284.82 449.58 1290.58 450.42 1286.41 454.48 1287.39 460.21 1282.24 457.51 1277.09 460.21 1278.08 454.48 1273.91 450.42 1279.67 449.58 1282.24 444.36"/><polygon class="cls-2" points="617.67 410.77 620.25 415.99 626 416.83 621.84 420.89 622.82 426.63 617.67 423.92 612.52 426.63 613.5 420.89 609.34 416.83 615.1 415.99 617.67 410.77"/><polygon class="cls-1" points="573.29 776.65 575.86 781.87 581.62 782.7 577.45 786.77 578.44 792.5 573.29 789.79 568.13 792.5 569.12 786.77 564.95 782.7 570.71 781.87 573.29 776.65"/><polygon class="cls-2" points="717.24 523.53 719.81 528.75 725.57 529.59 721.4 533.65 722.39 539.39 717.24 536.68 712.09 539.39 713.07 533.65 708.9 529.59 714.66 528.75 717.24 523.53"/><polygon class="cls-2" points="393.35 492.35 395.92 497.56 401.68 498.4 397.51 502.46 398.5 508.2 393.35 505.49 388.2 508.2 389.18 502.46 385.01 498.4 390.77 497.56 393.35 492.35"/><polygon class="cls-2" points="279.39 786.25 281.96 791.46 287.72 792.3 283.55 796.36 284.54 802.1 279.39 799.39 274.24 802.1 275.22 796.36 271.05 792.3 276.81 791.46 279.39 786.25"/><polygon class="cls-2" points="357.36 889.41 359.94 894.63 365.69 895.47 361.53 899.53 362.51 905.26 357.36 902.55 352.21 905.26 353.19 899.53 349.03 895.47 354.78 894.63 357.36 889.41"/><polygon class="cls-2" points="1192.27 501.94 1194.85 507.16 1200.61 508 1196.44 512.06 1197.42 517.79 1192.27 515.09 1187.12 517.79 1188.11 512.06 1183.94 508 1189.7 507.16 1192.27 501.94"/><polygon class="cls-2" points="1025.53 373.59 1028.11 378.81 1033.87 379.64 1029.7 383.7 1030.68 389.44 1025.53 386.73 1020.38 389.44 1021.36 383.7 1017.2 379.64 1022.96 378.81 1025.53 373.59"/><polygon class="cls-2" points="881.58 338.8 884.16 344.02 889.91 344.85 885.75 348.92 886.73 354.65 881.58 351.94 876.43 354.65 877.41 348.92 873.25 344.85 879 344.02 881.58 338.8"/><polygon class="cls-2" points="873.18 768.25 875.76 773.47 881.52 774.31 877.35 778.37 878.33 784.1 873.18 781.4 868.03 784.1 869.02 778.37 864.85 774.31 870.61 773.47 873.18 768.25"/><polygon class="cls-2" points="826.4 842.63 828.98 847.84 834.73 848.68 830.57 852.74 831.55 858.48 826.4 855.77 821.25 858.48 822.23 852.74 818.07 848.68 823.82 847.84 826.4 842.63"/><polygon class="cls-2" points="1246.26 381.98 1248.83 387.2 1254.59 388.04 1250.42 392.1 1251.41 397.84 1246.26 395.13 1241.1 397.84 1242.09 392.1 1237.92 388.04 1243.68 387.2 1246.26 381.98"/><polygon class="cls-2" points="1303.84 373.59 1306.41 378.81 1312.17 379.64 1308 383.7 1308.99 389.44 1303.84 386.73 1298.68 389.44 1299.67 383.7 1295.5 379.64 1301.26 378.81 1303.84 373.59"/><path class="cls-3" d="M706.51,594.33l-.09-.08-.11-.06-.13-.06h-.26l-.14,0h-.08l0,0-.13.07-.1.07-.09.09a.76.76,0,0,0-.08.11l0,0-29.72,56.27s0,0,0,.05a1,1,0,0,0,0,.16.31.31,0,0,0,0,.1s0,0,0,.07a.2.2,0,0,0,0,.07.38.38,0,0,0,0,.1.74.74,0,0,0,0,.14.2.2,0,0,0,0,.08.58.58,0,0,0,.11.15l0,0h0a1.33,1.33,0,0,0,.19.14l33.78,18.17h0l.08,0,.11,0h.22l.1,0,.11,0,.09,0,.09,0,0,0h0l31.6-21.74.1-.07h0l.08-.09a.71.71,0,0,0,.13-.22h0a.78.78,0,0,0,0-.34s0,0,0,0,0,0,0-.07l0-.09a.69.69,0,0,0-.07-.15s0,0,0-.05l-35.67-52.71,0,0Zm-1.21,3.6,2,36.33-29.09,15Zm2.08,38.12,1.74,31.89L678,651.21ZM709,636l30.86,11.87-29.12,20Zm30.46,10-30.56-11.75-2-36.33Z"/><path class="cls-3" d="M711.36,703.78l.06.06.08,0a.51.51,0,0,0,.15.07h0a.85.85,0,0,0,.23,0H712l.17,0h0l0,0a.83.83,0,0,0,.23-.15h0a.7.7,0,0,0,.14-.16l30.18-47.88a.82.82,0,0,0-.12-1,.83.83,0,0,0-1-.09L710.36,675.5,677,658.11a.83.83,0,0,0-1,.21.81.81,0,0,0,0,1l35.21,44.31h0A.37.37,0,0,0,711.36,703.78Zm1.19-3.25-1.3-23.65,28-18.77Zm-32.84-39.17L709.61,677l1.29,23.65Z"/></svg>