<svg id="Слой_1" data-name="Слой 1" xmlns="http://www.w3.org/2000/svg" viewBox="0 0 1721.92 1285.31"><defs><style>.cls-1,.cls-3{fill:#fff;}.cls-2{fill:#6f3ff5;}.cls-3{font-size:145.81px;stroke:#fff;stroke-miterlimit:10;stroke-width:3px;font-family:CheckYourConnection-Regular, Check Your Connection;}.cls-4{letter-spacing:-0.03em;}.cls-5{letter-spacing:-0.02em;}.cls-6{letter-spacing:-0.02em;}.cls-7{letter-spacing:-0.01em;}.cls-8{letter-spacing:-0.04em;}.cls-9{letter-spacing:0em;}.cls-10{letter-spacing:-0.01em;}.cls-11{letter-spacing:0.02em;}.cls-12{letter-spacing:0.02em;}.cls-13{letter-spacing:-0.01em;}.cls-14{letter-spacing:0.02em;}</style></defs><polygon class="cls-1" points="345.25 73.73 1379.83 73.73 1711.55 661.77 1379.83 1249.82 345.25 1249.82 13.53 661.77 345.25 73.73"/><path class="cls-2" d="M1339.26,108.9,1646.75,654l-307.49,545.1H385.82L78.33,654,385.82,108.9Zm7.23-12.39H378.59L64.11,654l314.48,557.48h967.9L1661,654,1346.49,96.51Z"/><polygon class="cls-1" points="391.35 1189.64 89.19 654 391.35 118.36 1333.73 118.36 1635.89 654 1333.73 1189.64 391.35 1189.64"/><path class="cls-2" d="M1312,155.51,1593.23,654,1312,1152.49h-899L131.85,654l281.2-498.49Zm21.69-37.15H391.35L89.19,654l302.16,535.64h942.38L1635.89,654,1333.73,118.36Z"/><polygon class="cls-2" points="164.44 654 299.08 892.68 1426 892.68 1560.64 654 1426 415.31 299.08 415.31 164.44 654"/><path class="cls-1" d="M1403,454.63,1515.5,654,1403,853.36H322L209.58,654,322,454.63Zm1.81-3.09H320.24l-.89,1.57L206.89,652.48,206,654l.86,1.52L319.35,854.89l.89,1.57H1404.85l.88-1.57L1518.2,655.52l.85-1.52-.85-1.52L1405.73,453.11l-.88-1.57Z"/><path class="cls-2" d="M426.14,190.14q109.22-3.6,218.45-4.82c72.82-1,145.64-1.25,218.45-1.37l109.23.32c36.41.35,72.82.46,109.23,1q109.21,1.22,218.45,4.84-109.23,3.6-218.45,4.83c-36.41.57-72.82.68-109.23,1L863,196.32c-72.81-.12-145.63-.38-218.45-1.37Q535.36,193.74,426.14,190.14Z"/><path class="cls-2" d="M426.14,1117.86q109.22-3.58,218.45-4.81c72.82-1,145.64-1.25,218.45-1.38l109.23.33c36.41.34,72.82.45,109.23,1q109.21,1.21,218.45,4.83-109.23,3.62-218.45,4.83c-36.41.58-72.82.69-109.23,1l-109.23.33c-72.81-.12-145.63-.39-218.45-1.37Q535.36,1121.45,426.14,1117.86Z"/><text class="cls-3" transform="translate(293.92 646.49)"><tspan class="cls-4">P</tspan><tspan class="cls-5" x="100.17" y="0">U</tspan><tspan class="cls-6" x="203.84" y="0">B</tspan><tspan class="cls-7" x="311.73" y="0">L</tspan><tspan class="cls-8" x="403.59" y="0">I</tspan><tspan class="cls-9" x="456.67" y="0">C </tspan><tspan class="cls-10" x="602.91" y="0">G</tspan><tspan class="cls-11" x="718.09" y="0">O</tspan><tspan class="cls-10" x="837.8" y="0">O</tspan><tspan class="cls-6" x="952.26" y="0">D</tspan><tspan x="1060.44" y="0">S </tspan><tspan class="cls-12" x="189.84" y="174.97">A</tspan><tspan x="297.88" y="174.97">RE </tspan><tspan class="cls-13" x="551.87" y="174.97">G</tspan><tspan class="cls-14" x="667.06" y="174.97">O</tspan><tspan class="cls-13" x="786.76" y="174.97">O</tspan><tspan x="901.22" y="174.97">D</tspan></text></svg>